<?xml version="1.0" encoding="UTF-8"?>
<svg version="1.1" xmlns="http://www.w3.org/2000/svg" width="200" height="200">
<path d="M0 0 C66 0 132 0 200 0 C200 66 200 132 200 200 C134 200 68 200 0 200 C0 134 0 68 0 0 Z " fill="#000000" transform="translate(0,0)"/>
<path d="M0 0 C10.89 0 21.78 0 33 0 C33.125 13.4375 33.125 13.4375 33.11767578 17.61889648 C33.3003991 25.56736102 34.26035616 31.23435283 40 37 C42.38743377 38.88230102 44.85707472 40.31172205 47.5625 41.6875 C53.7306358 44.91608554 58.68117779 48.04353337 61 55 C61.08589303 56.39655459 61.11772715 57.79685777 61.11352539 59.19604492 C61.11344986 60.03668991 61.11337433 60.8773349 61.11329651 61.74345398 C61.10813522 62.64666885 61.10297394 63.54988373 61.09765625 64.48046875 C61.0962413 65.40845779 61.09482635 66.33644684 61.09336853 67.29255676 C61.08776937 70.25757058 61.07521704 73.22250899 61.0625 76.1875 C61.05748489 78.19726453 61.052922 80.20703025 61.04882812 82.21679688 C61.03865095 87.1445837 61.01907533 92.0722074 61 97 C50.11 97 39.22 97 28 97 C27.96261719 93.31585938 27.92523438 89.63171875 27.88671875 85.8359375 C27.84048648 82.26149614 27.78925884 78.68715879 27.73754883 75.11279297 C27.70432764 72.63173765 27.67628702 70.15060727 27.65356445 67.66943359 C27.6199678 64.09960999 27.56764717 60.53047255 27.51171875 56.9609375 C27.50532883 55.85446869 27.4989389 54.74799988 27.49235535 53.60800171 C27.35710371 46.49750201 26.72209924 41.72209924 21.5 36.5 C18.65602129 34.27054935 15.57225402 32.6710981 12.375 31 C5.02769966 27.08741323 3.35295305 23.82355711 0 16 C0 10.72 0 5.44 0 0 Z " fill="#FBFBFB" transform="translate(38,52)"/>
<path d="M0 0 C10.89 0 21.78 0 33 0 C33.01417969 3.64933594 33.02835938 7.29867187 33.04296875 11.05859375 C33.07362778 14.61329238 33.11270683 18.16780638 33.15258789 21.72241211 C33.17571058 24.18295713 33.19015006 26.64360032 33.19555664 29.10424805 C33.20488755 32.6521482 33.24597278 36.19851632 33.29296875 39.74609375 C33.2890361 40.8370787 33.28510345 41.92806366 33.28105164 43.05210876 C33.41358634 50.07182761 34.5856876 55.39661129 39 61 C41.36198065 62.95958825 43.77683419 64.40777783 46.5 65.8125 C54.3112563 70.07388834 58.26798781 72.29197155 62 81 C62 86.28 62 91.56 62 97 C51.11 97 40.22 97 29 97 C28.8125 84 28.8125 84 28.79223633 79.94921875 C28.60688419 72.8537901 28.02514683 67.31446829 23 62 C20.45118917 60.06519469 17.81443091 58.51626167 15 57 C8.76381022 53.45618736 3.81837145 50.23177426 0.87939453 43.39208984 C-0.24080446 39.07114459 -0.24964828 35.10660922 -0.1953125 30.6640625 C-0.1924826 29.78471039 -0.18965271 28.90535828 -0.18673706 27.99935913 C-0.17559712 25.20776406 -0.15050411 22.4164971 -0.125 19.625 C-0.1149622 17.72526507 -0.10583775 15.82552508 -0.09765625 13.92578125 C-0.07738484 9.28362795 -0.03822471 4.64217859 0 0 Z " fill="#FDFDFD" transform="translate(99,52)"/>
</svg>
